<?xml version="1.0" standalone="no"?>
<!DOCTYPE svg PUBLIC "-//W3C//DTD SVG 20010904//EN"
 "http://www.w3.org/TR/2001/REC-SVG-20010904/DTD/svg10.dtd">
<svg version="1.0" xmlns="http://www.w3.org/2000/svg"
 width="545.000000pt" height="284.000000pt" viewBox="0 0 545.000000 284.000000"
 preserveAspectRatio="xMidYMid meet">

<g transform="translate(0.000000,284.000000) scale(0.100000,-0.100000)"
fill="#000000" stroke="none">
<path d="M2702 2006 c-36 -34 -37 -36 -41 -120 l-3 -86 36 0 36 0 0 74 c0 66
3 77 22 90 20 14 88 16 543 16 455 0 523 -2 543 -16 22 -15 22 -17 22 -285 0
-237 2 -269 16 -269 8 0 12 -4 9 -10 -3 -6 1 -7 10 -4 13 5 13 9 3 18 -7 6
-12 10 -10 9 2 -1 13 8 23 18 19 19 20 32 17 267 -3 223 -5 250 -22 275 -39
58 -26 57 -621 57 l-545 0 -38 -34z"/>
<path d="M1360 1575 l0 -175 35 0 35 0 0 175 0 175 -35 0 -35 0 0 -175z"/>
<path d="M3405 1728 c-2 -7 -15 -69 -29 -138 -22 -116 -25 -160 -6 -130 4 7
20 14 34 15 15 2 33 9 41 15 8 6 19 9 24 6 5 -4 12 -2 16 4 3 5 15 10 26 10
15 0 19 5 15 18 -5 14 9 31 55 68 l62 49 -37 3 c-31 3 -46 -4 -100 -47 -35
-28 -66 -51 -69 -51 -2 0 4 39 14 88 10 48 18 90 19 95 0 12 -60 8 -65 -5z"/>
<path d="M1770 1681 c0 -20 -6 -30 -20 -34 -27 -7 -28 -57 -1 -57 16 0 19 -9
23 -75 4 -94 22 -117 92 -117 56 0 59 2 51 35 -5 18 -12 23 -26 20 -34 -9 -49
15 -49 78 l0 59 36 0 c33 0 35 2 32 28 -2 22 -8 28 -35 30 -29 3 -33 7 -33 33
0 27 -3 29 -35 29 -32 0 -35 -3 -35 -29z"/>
<path d="M1529 1635 c-38 -20 -59 -58 -59 -105 0 -84 52 -132 142 -132 28 0
59 7 73 16 22 14 23 19 12 37 -8 14 -18 18 -32 13 -41 -15 -97 -9 -112 12 -13
18 -11 19 82 22 l95 3 0 30 c0 42 -25 86 -60 104 -36 19 -107 19 -141 0z m113
-52 c29 -26 21 -33 -42 -33 -33 0 -60 3 -60 7 0 3 7 15 17 25 20 22 61 23 85
1z"/>
<path d="M1950 1525 l0 -125 35 0 35 0 0 73 c0 81 16 117 53 117 44 0 52 -15
56 -105 l3 -85 34 0 34 0 0 79 c0 86 12 111 54 111 38 0 46 -19 46 -107 l0
-83 40 0 40 0 0 73 c0 89 -14 142 -43 162 -28 19 -90 19 -128 0 -27 -14 -32
-14 -51 0 -26 17 -90 20 -119 5 -13 -7 -19 -7 -19 0 0 5 -16 10 -35 10 l-35 0
0 -125z"/>
<path d="M2469 1633 c-78 -48 -78 -170 0 -216 47 -27 128 -26 162 2 22 18 23
21 8 36 -15 15 -21 15 -52 4 -28 -10 -41 -10 -65 0 -17 7 -33 19 -36 27 -4 11
12 14 89 14 l95 0 0 30 c0 38 -23 84 -52 104 -30 21 -115 20 -149 -1z m112
-43 c10 -6 19 -17 19 -25 0 -12 -14 -15 -60 -15 -57 0 -60 1 -50 19 16 31 55
40 91 21z"/>
<path d="M2874 1631 c-48 -29 -64 -59 -64 -119 0 -46 4 -58 29 -83 34 -33 91
-40 129 -13 20 14 22 14 22 0 0 -11 10 -16 30 -16 17 0 30 2 30 4 0 5 38 193
45 224 5 20 2 22 -30 22 -24 0 -35 -5 -35 -15 0 -19 -9 -19 -34 0 -27 21 -85
19 -122 -4z m114 -47 c49 -34 10 -134 -53 -134 -30 0 -65 32 -65 60 0 68 67
110 118 74z"/>
<path d="M3163 1631 c-63 -39 -52 -102 20 -122 56 -15 72 -23 72 -40 0 -11
-17 -14 -71 -13 -58 0 -74 -3 -82 -17 -10 -15 -6 -19 21 -28 39 -13 98 -10
114 6 7 6 22 9 34 6 15 -4 20 -3 15 5 -4 7 -1 12 8 12 20 0 31 43 17 69 -10
18 -64 41 -97 41 -6 0 -17 6 -23 14 -20 23 12 39 69 34 43 -4 52 -2 61 14 15
27 7 32 -64 36 -49 2 -69 -1 -94 -17z"/>
<path d="M2663 1204 c3 -28 13 -55 28 -71 47 -51 65 -53 397 -53 262 0 311 -2
322 -15 7 -8 17 -12 22 -9 6 4 15 0 20 -7 8 -11 9 -10 4 3 -3 11 1 18 12 20
13 3 8 12 -23 41 l-40 37 -326 0 c-360 0 -345 -3 -356 64 -5 32 -9 36 -36 36
-29 0 -30 0 -24 -46z"/>
<path d="M3605 1179 c-4 -6 -4 -13 -1 -16 3 -4 6 -1 6 5 0 6 8 13 18 15 15 4
15 5 0 6 -9 0 -20 -4 -23 -10z"/>
</g>
</svg>
